<?xml version="1.0" encoding="UTF-8"?>
<!DOCTYPE svg PUBLIC "-//W3C//DTD SVG 1.1//EN" "http://www.w3.org/Graphics/SVG/1.1/DTD/svg11.dtd">
<svg xmlns="http://www.w3.org/2000/svg" version="1.1" width="622px" height="585px" style="shape-rendering:geometricPrecision; text-rendering:geometricPrecision; image-rendering:optimizeQuality; fill-rule:evenodd; clip-rule:evenodd" xmlns:xlink="http://www.w3.org/1999/xlink">
<g><path style="opacity:0.948" fill="#1564c0" d="M 338.5,27.5 C 355.909,29.0662 361.742,38.0662 356,54.5C 349.006,61.9912 340.84,63.4912 331.5,59C 322.952,50.6314 322.285,41.6314 329.5,32C 332.324,29.9212 335.324,28.4212 338.5,27.5 Z"/></g>
<g><path style="opacity:0.994" fill="#1565c0" d="M 329.5,60.5 C 337.334,67.1335 345.168,67.1335 353,60.5C 426.347,133.68 499.514,207.014 572.5,280.5C 569.738,284.026 568.072,288.026 567.5,292.5C 568.545,297.2 570.045,301.533 572,305.5C 499.32,378.347 426.486,451.014 353.5,523.5C 349.969,520.735 345.969,519.068 341.5,518.5C 336.836,519.521 332.502,521.021 328.5,523C 255.46,450.294 182.794,377.294 110.5,304C 113,300.335 114.667,296.335 115.5,292C 114.158,287.629 112.658,283.462 111,279.5C 184.035,206.632 256.868,133.632 329.5,60.5 Z"/></g>
<g><path style="opacity:0.987" fill="#464746" d="M 707.5,168.5 C 752.5,168.5 797.5,168.5 842.5,168.5C 842.5,177.167 842.5,185.833 842.5,194.5C 806.5,194.5 770.5,194.5 734.5,194.5C 734.5,217.833 734.5,241.167 734.5,264.5C 766.167,264.5 797.833,264.5 829.5,264.5C 829.5,273.167 829.5,281.833 829.5,290.5C 797.833,290.5 766.167,290.5 734.5,290.5C 734.5,313.5 734.5,336.5 734.5,359.5C 770.5,359.5 806.5,359.5 842.5,359.5C 842.5,368.167 842.5,376.833 842.5,385.5C 797.5,385.5 752.5,385.5 707.5,385.5C 707.5,313.167 707.5,240.833 707.5,168.5 Z"/></g>
<g><path style="opacity:0.976" fill="#1564c0" d="M 1656.5,168.5 C 1665.17,168.5 1673.83,168.5 1682.5,168.5C 1682.33,193.169 1682.5,217.836 1683,242.5C 1696.66,234.035 1711.5,231.202 1727.5,234C 1748.37,238.874 1763.2,251.04 1772,270.5C 1774.1,276.326 1775.43,282.326 1776,288.5C 1776.5,320.832 1776.67,353.165 1776.5,385.5C 1767.5,385.5 1758.5,385.5 1749.5,385.5C 1749.97,351.451 1749.47,317.451 1748,283.5C 1740.73,265.779 1727.56,258.279 1708.5,261C 1696.5,264.337 1688.33,271.837 1684,283.5C 1682.53,317.459 1682.03,351.459 1682.5,385.5C 1673.83,385.5 1665.17,385.5 1656.5,385.5C 1656.5,313.167 1656.5,240.833 1656.5,168.5 Z"/></g>
<g><path style="opacity:0.983" fill="#1564c0" d="M 1204.5,169.5 C 1253.83,169.5 1303.17,169.5 1352.5,169.5C 1352.5,178.167 1352.5,186.833 1352.5,195.5C 1332.17,195.5 1311.83,195.5 1291.5,195.5C 1291.5,258.833 1291.5,322.167 1291.5,385.5C 1282.5,385.5 1273.5,385.5 1264.5,385.5C 1264.5,322.167 1264.5,258.833 1264.5,195.5C 1244.5,195.5 1224.5,195.5 1204.5,195.5C 1204.5,186.833 1204.5,178.167 1204.5,169.5 Z"/></g>
<g><path style="opacity:1" fill="#eff4fa" d="M 388.5,170.5 C 407.972,178.3 420.305,192.3 425.5,212.5C 424.167,212.5 422.833,212.5 421.5,212.5C 416.316,195.308 405.649,182.642 389.5,174.5C 388.571,173.311 388.238,171.978 388.5,170.5 Z"/></g>
<g><path style="opacity:1" fill="#edf2fa" d="M 387.5,179.5 C 402.495,185.827 412.161,196.827 416.5,212.5C 415.167,212.5 413.833,212.5 412.5,212.5C 409.088,199.245 401.088,189.745 388.5,184C 387.62,182.644 387.286,181.144 387.5,179.5 Z"/></g>
<g><path style="opacity:1" fill="#eef3fa" d="M 386.5,189.5 C 396.72,193.051 403.054,200.051 405.5,210.5C 404.325,210.719 403.325,210.386 402.5,209.5C 399.559,202.226 394.559,196.893 387.5,193.5C 386.571,192.311 386.238,190.978 386.5,189.5 Z"/></g>
<g><path style="opacity:1" fill="#fbfcfe" d="M 294.5,203.5 C 324.502,203.333 354.502,203.5 384.5,204C 389,205.833 392.167,209 394,213.5C 394.667,265.167 394.667,316.833 394,368.5C 392.594,373.573 389.428,377.073 384.5,379C 354.5,379.667 324.5,379.667 294.5,379C 290,377.167 286.833,374 285,369.5C 284.333,317.5 284.333,265.5 285,213.5C 287.022,208.98 290.189,205.647 294.5,203.5 Z"/></g>
<g><path style="opacity:1" fill="#1665c0" d="M 314.5,220.5 C 330.5,220.5 346.5,220.5 362.5,220.5C 362.5,223.5 362.5,226.5 362.5,229.5C 346.5,229.5 330.5,229.5 314.5,229.5C 314.5,226.5 314.5,223.5 314.5,220.5 Z"/></g>
<g><path style="opacity:0.963" fill="#1564c0" d="M 1576.5,232.5 C 1600.03,229.618 1619.69,236.785 1635.5,254C 1630.03,260.638 1624.03,266.804 1617.5,272.5C 1598.28,256.008 1578.28,255.175 1557.5,270C 1534.77,291.87 1531.94,316.037 1549,342.5C 1564.84,360.897 1584.01,365.73 1606.5,357C 1610.17,354.167 1613.83,351.333 1617.5,348.5C 1624.37,354.192 1630.21,360.525 1635,367.5C 1612,389.154 1585.83,393.654 1556.5,381C 1522.24,362.321 1507.74,333.488 1513,294.5C 1521.9,261.102 1543.06,240.435 1576.5,232.5 Z"/></g>
<g><path style="opacity:0.965" fill="#464746" d="M 934.5,233.5 C 975.335,229.908 1004.17,246.575 1021,283.5C 1022.81,289.056 1024.14,294.722 1025,300.5C 1025.5,328.831 1025.67,357.165 1025.5,385.5C 1016.83,385.5 1008.17,385.5 999.5,385.5C 999.667,360.164 999.5,334.831 999,309.5C 997.264,287.191 986.097,271.691 965.5,263C 930.226,254.88 907.393,268.047 897,302.5C 896.5,330.165 896.333,357.831 896.5,385.5C 887.5,385.5 878.5,385.5 869.5,385.5C 869.333,359.165 869.5,332.831 870,306.5C 874.725,267.279 896.225,242.945 934.5,233.5 Z"/></g>
<g><path style="opacity:0.965" fill="#464746" d="M 1115.5,234.5 C 1155.91,230.781 1184.75,247.114 1202,283.5C 1212.71,315.758 1206.54,344.258 1183.5,369C 1179.19,372.824 1174.52,376.157 1169.5,379C 1187.95,397.621 1193.11,419.454 1185,444.5C 1174.98,464.847 1158.81,477.347 1136.5,482C 1132.18,482.499 1127.85,482.666 1123.5,482.5C 1123.5,473.833 1123.5,465.167 1123.5,456.5C 1142.87,456.601 1155.71,447.601 1162,429.5C 1164.02,411.706 1156.85,399.206 1140.5,392C 1132.26,390.289 1123.93,389.289 1115.5,389C 1082.64,381.802 1061.8,361.968 1053,329.5C 1046.91,279.813 1067.74,248.147 1115.5,234.5 Z M 1119.5,261.5 C 1149.76,258.866 1169.6,271.866 1179,300.5C 1183.56,330.558 1171.73,351.058 1143.5,362C 1111.42,367.57 1089.92,355.07 1079,324.5C 1075.03,292.014 1088.53,271.014 1119.5,261.5 Z"/></g>
<g><path style="opacity:0.973" fill="#1564c0" d="M 1397.5,234.5 C 1437.52,231.085 1466.02,247.418 1483,283.5C 1487.47,296.854 1488.97,310.521 1487.5,324.5C 1445.17,324.333 1402.83,324.5 1360.5,325C 1369.67,352.42 1388.67,365.086 1417.5,363C 1421.29,361.607 1424.95,359.941 1428.5,358C 1431.69,355.308 1435.03,352.808 1438.5,350.5C 1444.83,356.167 1450.83,362.167 1456.5,368.5C 1434.49,390.737 1408.82,395.903 1379.5,384C 1339.93,363.355 1325.43,331.188 1336,287.5C 1346.82,258.519 1367.32,240.852 1397.5,234.5 Z M 1400.5,261.5 C 1421.68,259.019 1438.85,266.019 1452,282.5C 1455.6,287.699 1458.1,293.365 1459.5,299.5C 1426.5,299.667 1393.5,299.5 1360.5,299C 1367.29,279.377 1380.62,266.877 1400.5,261.5 Z"/></g>
<g><path style="opacity:0.945" fill="#1564c0" d="M 88.5,275.5 C 105.632,274.126 112.799,281.793 110,298.5C 104.985,308.389 97.1515,311.555 86.5,308C 75.9439,300.222 74.2772,290.889 81.5,280C 83.8981,278.476 86.2314,276.976 88.5,275.5 Z"/></g>
<g><path style="opacity:0.944" fill="#1564c0" d="M 583.5,275.5 C 602.586,275.419 609.086,284.419 603,302.5C 591.831,312.603 581.831,311.603 573,299.5C 569.74,288.367 573.24,280.367 583.5,275.5 Z"/></g>
<g><path style="opacity:1" fill="#1f68c1" d="M 339.5,340.5 C 349.78,340.391 353.947,345.391 352,355.5C 348.153,361.388 342.987,362.888 336.5,360C 332.872,356.208 331.706,351.708 333,346.5C 334.494,343.686 336.66,341.686 339.5,340.5 Z"/></g>
<g><path style="opacity:0.772" fill="#464746" d="M 1547.5,418.5 C 1549.5,418.5 1551.5,418.5 1553.5,418.5C 1553.33,437.503 1553.5,456.503 1554,475.5C 1555.26,477.607 1557.1,478.607 1559.5,478.5C 1559.5,480.167 1559.5,481.833 1559.5,483.5C 1552.71,483.527 1548.88,480.194 1548,473.5C 1547.5,455.17 1547.33,436.836 1547.5,418.5 Z"/></g>
<g><path style="opacity:0.867" fill="#464746" d="M 1633.5,418.5 C 1635.17,418.5 1636.83,418.5 1638.5,418.5C 1638.5,420.833 1638.5,423.167 1638.5,425.5C 1636.83,425.5 1635.17,425.5 1633.5,425.5C 1633.5,423.167 1633.5,420.833 1633.5,418.5 Z"/></g>
<g><path style="opacity:0.756" fill="#464746" d="M 1332.5,420.5 C 1334.5,420.5 1336.5,420.5 1338.5,420.5C 1338.5,441.167 1338.5,461.833 1338.5,482.5C 1336.5,482.5 1334.5,482.5 1332.5,482.5C 1332.5,461.833 1332.5,441.167 1332.5,420.5 Z"/></g>
<g><path style="opacity:0.918" fill="#464746" d="M 1386.5,420.5 C 1400.83,420.5 1415.17,420.5 1429.5,420.5C 1429.5,421.833 1429.5,423.167 1429.5,424.5C 1423.17,424.5 1416.83,424.5 1410.5,424.5C 1410.5,443.833 1410.5,463.167 1410.5,482.5C 1408.83,482.5 1407.17,482.5 1405.5,482.5C 1405.5,463.167 1405.5,443.833 1405.5,424.5C 1399.17,424.5 1392.83,424.5 1386.5,424.5C 1386.5,423.167 1386.5,421.833 1386.5,420.5 Z"/></g>
<g><path style="opacity:0.883" fill="#464746" d="M 1463.5,420.5 C 1471.83,420.5 1480.17,420.5 1488.5,420.5C 1488.5,422.167 1488.5,423.833 1488.5,425.5C 1480.08,425.094 1471.75,425.594 1463.5,427C 1455.5,433.667 1455.5,440.333 1463.5,447C 1468.75,448.174 1474.08,448.841 1479.5,449C 1491.35,454.531 1494.51,463.364 1489,475.5C 1486.64,478.869 1483.47,481.036 1479.5,482C 1471.17,482.5 1462.84,482.666 1454.5,482.5C 1454.5,481.167 1454.5,479.833 1454.5,478.5C 1462.92,478.906 1471.25,478.406 1479.5,477C 1487.82,470.74 1488.49,463.74 1481.5,456C 1475.72,453.936 1469.72,452.936 1463.5,453C 1453.4,448.625 1449.9,441.125 1453,430.5C 1455.08,425.584 1458.58,422.25 1463.5,420.5 Z"/></g>
<g><path style="opacity:0.814" fill="#464746" d="M 1603.5,429.5 C 1605.5,429.5 1607.5,429.5 1609.5,429.5C 1609.5,433.167 1609.5,436.833 1609.5,440.5C 1614.83,440.5 1620.17,440.5 1625.5,440.5C 1625.5,441.833 1625.5,443.167 1625.5,444.5C 1620.17,444.5 1614.83,444.5 1609.5,444.5C 1609.33,454.506 1609.5,464.506 1610,474.5C 1613.14,479.164 1616.64,479.497 1620.5,475.5C 1621.25,474.264 1621.58,472.93 1621.5,471.5C 1623.53,471.338 1625.53,471.505 1627.5,472C 1624.52,483.157 1617.85,486.157 1607.5,481C 1606.3,480.097 1605.47,478.931 1605,477.5C 1603.56,461.557 1603.06,445.557 1603.5,429.5 Z"/></g>
<g><path style="opacity:0.84" fill="#464746" d="M 1362.5,438.5 C 1379.35,436.859 1389.02,444.359 1391.5,461C 1389.04,477.795 1379.37,485.128 1362.5,483C 1346.02,475.533 1341.85,463.7 1350,447.5C 1353.3,443.118 1357.47,440.118 1362.5,438.5 Z M 1366.5,443.5 C 1383.56,445.94 1389.06,455.274 1383,471.5C 1373.96,481.677 1364.63,482.01 1355,472.5C 1348.33,458.527 1352.16,448.86 1366.5,443.5 Z"/></g>
<g><path style="opacity:0.84" fill="#464746" d="M 1513.5,438.5 C 1530.35,436.859 1540.02,444.359 1542.5,461C 1540.04,477.795 1530.37,485.128 1513.5,483C 1497.02,475.533 1492.85,463.7 1501,447.5C 1504.3,443.118 1508.47,440.118 1513.5,438.5 Z M 1517.5,443.5 C 1534.56,445.94 1540.06,455.274 1534,471.5C 1524.96,481.677 1515.63,482.01 1506,472.5C 1499.33,458.527 1503.16,448.86 1517.5,443.5 Z"/></g>
<g><path style="opacity:0.84" fill="#464746" d="M 1661.5,438.5 C 1678.35,436.859 1688.02,444.359 1690.5,461C 1688.04,477.795 1678.37,485.128 1661.5,483C 1645.02,475.533 1640.85,463.7 1649,447.5C 1652.3,443.118 1656.47,440.118 1661.5,438.5 Z M 1665.5,443.5 C 1682.56,445.94 1688.06,455.274 1682,471.5C 1672.96,481.677 1663.63,482.01 1654,472.5C 1647.33,458.527 1651.16,448.86 1665.5,443.5 Z"/></g>
<g><path style="opacity:0.804" fill="#464746" d="M 1712.5,438.5 C 1727.7,436.504 1737.2,442.837 1741,457.5C 1741.5,465.827 1741.67,474.16 1741.5,482.5C 1739.5,482.5 1737.5,482.5 1735.5,482.5C 1735.67,473.494 1735.5,464.494 1735,455.5C 1728.89,444.017 1720.05,441.184 1708.5,447C 1706.29,448.873 1704.46,451.04 1703,453.5C 1701.58,463.086 1701.08,472.753 1701.5,482.5C 1699.5,482.5 1697.5,482.5 1695.5,482.5C 1695.18,472.783 1695.68,463.116 1697,453.5C 1700.11,446.225 1705.27,441.225 1712.5,438.5 Z"/></g>
<g><path style="opacity:0.818" fill="#464746" d="M 1564.5,439.5 C 1566.17,439.5 1567.83,439.5 1569.5,439.5C 1569.33,449.839 1569.5,460.172 1570,470.5C 1573.23,478.019 1578.73,480.519 1586.5,478C 1588.71,476.127 1590.54,473.96 1592,471.5C 1592.5,460.839 1592.67,450.172 1592.5,439.5C 1594.5,439.5 1596.5,439.5 1598.5,439.5C 1598.91,450.896 1598.41,462.23 1597,473.5C 1590.89,483.737 1582.39,486.237 1571.5,481C 1568.57,478.736 1566.4,475.902 1565,472.5C 1564.5,461.505 1564.33,450.505 1564.5,439.5 Z"/></g>
<g><path style="opacity:0.856" fill="#464746" d="M 1633.5,439.5 C 1635.17,439.5 1636.83,439.5 1638.5,439.5C 1638.5,453.833 1638.5,468.167 1638.5,482.5C 1636.83,482.5 1635.17,482.5 1633.5,482.5C 1633.5,468.167 1633.5,453.833 1633.5,439.5 Z"/></g>
<g><path style="opacity:0.874" fill="#464746" d="M 1753.5,439.5 C 1760.5,439.5 1767.5,439.5 1774.5,439.5C 1774.5,440.833 1774.5,442.167 1774.5,443.5C 1768.49,443.334 1762.49,443.501 1756.5,444C 1753.63,445.393 1752.3,447.726 1752.5,451C 1752.44,453.261 1753.11,455.261 1754.5,457C 1759.39,458.224 1764.39,458.891 1769.5,459C 1776.87,464.068 1778.37,470.568 1774,478.5C 1772.79,480.049 1771.29,481.215 1769.5,482C 1762.17,482.5 1754.84,482.666 1747.5,482.5C 1747.5,481.167 1747.5,479.833 1747.5,478.5C 1753.84,478.666 1760.18,478.5 1766.5,478C 1768.33,477.5 1769.5,476.333 1770,474.5C 1770.97,470.882 1770.47,467.549 1768.5,464.5C 1763.68,462.845 1758.68,462.012 1753.5,462C 1744.23,454.504 1744.23,447.004 1753.5,439.5 Z"/></g>
<g><path style="opacity:0.943" fill="#1564c0" d="M 337.5,522.5 C 352.753,522.014 359.587,529.347 358,544.5C 352.403,556.367 343.57,559.534 331.5,554C 323.662,546.475 322.496,537.975 328,528.5C 330.843,525.837 334.009,523.837 337.5,522.5 Z"/></g>
</svg>
