<?xml version="1.0" standalone="no"?>
<!DOCTYPE svg PUBLIC "-//W3C//DTD SVG 20010904//EN"
 "http://www.w3.org/TR/2001/REC-SVG-20010904/DTD/svg10.dtd">
<svg version="1.0" xmlns="http://www.w3.org/2000/svg"
 width="512.000000pt" height="512.000000pt" viewBox="0 0 512.000000 512.000000"
 preserveAspectRatio="xMidYMid meet">

<g transform="translate(0.000000,512.000000) scale(0.100000,-0.100000)"
fill="#000000" stroke="none">
<path d="M2502 5015 c-16 -13 -62 -63 -103 -110 -245 -286 -395 -568 -484
-910 -55 -212 -67 -309 -72 -627 l-5 -287 -95 -81 c-249 -215 -456 -526 -561
-845 -51 -154 -73 -263 -113 -567 -30 -233 -31 -249 -15 -272 9 -14 28 -29 43
-32 52 -14 73 5 142 126 52 90 85 135 156 206 76 77 104 98 185 137 92 45 190
77 237 77 21 0 23 -5 23 -50 0 -73 29 -100 105 -100 l55 0 0 -135 c0 -131 1
-137 25 -160 24 -25 24 -25 240 -25 l215 0 0 -160 0 -160 80 0 80 0 0 160 0
160 215 0 c216 0 216 0 240 25 24 23 25 29 25 160 l0 135 55 0 c76 0 105 27
105 100 0 45 2 50 23 50 47 0 145 -32 237 -77 81 -39 109 -60 185 -137 71 -72
104 -115 155 -206 69 -121 90 -140 143 -126 15 3 34 18 43 32 16 23 16 34 0
157 -56 431 -82 563 -146 737 -105 290 -312 590 -543 790 l-95 81 -5 287 c-5
301 -15 396 -62 587 -93 383 -285 734 -558 1019 -72 76 -104 84 -155 41z m109
-227 c117 -136 247 -334 310 -473 16 -36 29 -67 29 -70 0 -3 -175 -5 -390 -5
-214 0 -390 4 -390 9 0 20 114 231 175 322 68 102 201 269 214 269 4 0 28 -24
52 -52z m429 -790 c35 -128 59 -258 70 -375 6 -64 10 -453 10 -945 l0 -838
-560 0 -560 0 0 844 c0 976 3 1031 80 1314 l22 82 458 0 458 0 22 -82z m-1205
-1995 c-2 -7 -17 -13 -33 -13 -52 0 -186 -40 -271 -80 -92 -44 -160 -90 -233
-159 -57 -52 -57 -53 -28 110 62 342 223 654 475 918 l90 94 3 -429 c1 -236 0
-435 -3 -441z m1637 667 c194 -238 326 -522 378 -809 29 -163 29 -163 -22
-115 -129 123 -300 209 -466 237 l-77 13 -3 439 -2 440 66 -65 c36 -36 93 -99
126 -140z m-512 -1070 l0 -80 -400 0 -400 0 0 80 0 80 400 0 400 0 0 -80z"/>
<path d="M2441 3584 c-253 -68 -410 -331 -346 -579 67 -256 329 -415 580 -350
256 67 415 329 350 578 -67 259 -333 419 -584 351z m270 -185 c67 -36 98 -68
137 -143 22 -43 26 -64 26 -136 1 -78 -2 -90 -33 -148 -38 -70 -70 -100 -145
-140 -43 -22 -64 -26 -136 -26 -72 0 -93 4 -136 26 -75 40 -107 70 -145 140
-31 58 -34 70 -33 148 0 100 24 160 89 225 100 100 249 121 376 54z"/>
<path d="M2111 1151 c-32 -50 -68 -118 -80 -153 -46 -134 -37 -276 26 -408 32
-68 57 -96 252 -293 198 -199 219 -217 250 -217 32 0 53 18 233 198 211 209
257 267 297 372 34 92 36 246 3 341 -20 59 -133 249 -147 249 -3 0 -33 -18
-66 -41 -40 -27 -59 -46 -55 -55 3 -8 24 -42 47 -75 70 -104 83 -142 84 -244
0 -140 -23 -179 -230 -385 l-165 -165 -165 165 c-207 206 -230 245 -230 385 1
102 14 140 84 244 23 33 44 67 47 75 4 9 -15 28 -55 55 -33 23 -62 41 -66 41
-3 0 -32 -40 -64 -89z"/>
</g>
</svg>
