<?xml version="1.0" standalone="no"?>
<!DOCTYPE svg PUBLIC "-//W3C//DTD SVG 20010904//EN"
 "http://www.w3.org/TR/2001/REC-SVG-20010904/DTD/svg10.dtd">
<svg version="1.0" xmlns="http://www.w3.org/2000/svg"
 width="512.000000pt" height="512.000000pt" viewBox="0 0 512.000000 512.000000"
 preserveAspectRatio="xMidYMid meet">

<g transform="translate(0.000000,512.000000) scale(0.100000,-0.100000)"
fill="#000000" stroke="none">
<path d="M2350 3784 c-19 -2 -84 -9 -145 -15 -705 -71 -1456 -412 -2045 -931
-126 -111 -155 -162 -155 -273 0 -111 29 -162 155 -273 591 -520 1296 -841
2050 -934 158 -20 583 -16 745 6 436 59 796 173 1195 377 197 101 320 177 339
210 20 36 7 75 -30 94 -37 20 -50 16 -158 -49 -279 -169 -578 -299 -890 -387
-58 -16 -108 -29 -113 -29 -5 0 17 22 49 49 217 180 377 462 423 744 13 80 13
304 0 384 -46 283 -205 563 -423 745 -32 26 -54 48 -50 48 19 0 197 -52 303
-88 396 -135 791 -356 1142 -637 164 -131 215 -184 224 -228 14 -78 -6 -108
-138 -220 -196 -165 -191 -160 -191 -197 0 -22 7 -39 22 -52 43 -34 73 -24
178 60 236 188 277 244 278 377 0 70 -4 87 -30 135 -34 61 -148 167 -335 309
-553 421 -1153 674 -1790 756 -117 15 -531 28 -610 19z m473 -178 c380 -97
674 -391 779 -776 20 -74 23 -108 23 -265 0 -157 -3 -191 -23 -265 -105 -385
-395 -675 -779 -777 -87 -23 -117 -26 -263 -26 -147 0 -176 3 -265 26 -399
107 -704 426 -787 827 -17 80 -19 122 -15 264 4 167 4 170 -19 193 -47 47
-110 18 -125 -57 -11 -62 -11 -302 1 -377 46 -283 205 -563 423 -745 32 -26
54 -48 50 -48 -19 0 -197 52 -303 88 -320 109 -658 285 -956 496 -147 105
-368 287 -392 324 -23 35 -23 119 0 154 46 70 410 348 635 484 285 173 651
333 917 400 34 8 70 18 81 21 11 3 -19 -31 -67 -76 -48 -45 -110 -111 -139
-147 -68 -85 -139 -211 -139 -246 0 -71 95 -93 135 -31 11 17 42 67 70 110
154 244 438 424 743 473 101 16 305 4 415 -24z"/>
<path d="M2485 3150 c-196 -26 -372 -155 -456 -334 -79 -171 -79 -332 2 -505
31 -66 54 -99 116 -161 119 -118 249 -173 413 -173 164 0 294 55 413 173 62
62 85 95 116 161 22 46 44 111 50 143 24 129 9 240 -50 365 -53 113 -160 222
-269 273 -112 53 -223 72 -335 58z m185 -161 c145 -33 275 -163 314 -314 53
-200 -43 -409 -228 -500 -337 -166 -715 137 -621 498 33 126 113 225 228 282
103 50 190 60 307 34z"/>
</g>
</svg>
